<svg width="106" height="92" xmlns="http://www.w3.org/2000/svg" xmlns:xlink="http://www.w3.org/1999/xlink" overflow="hidden"><defs><clipPath id="clip0"><path d="M1517 245 1623 245 1623 337 1517 337Z" fill-rule="evenodd" clip-rule="evenodd"/></clipPath></defs><g clip-path="url(#clip0)" transform="translate(-1517 -245)"><path d="M1596.69 321.991 1596.69 321.991C1596.69 322.314 1596.69 322.638 1596.69 322.799M1609 311.974 1609 311.974 1609 290 1609 290 1603.79 290 1535 290 1535 290 1535 321.991 1535 327 1585.49 327 1585.49 322.799 1547.46 322.961C1547.46 322.638 1547.31 322.314 1547.31 321.991 1546.68 318.114 1543.52 314.882 1539.42 314.397L1539.42 302.603C1543.68 302.118 1547.15 298.563 1547.46 294.201L1596.69 294.201C1596.85 298.24 1599.85 301.633 1603.79 302.441 1604.11 302.603 1604.27 302.603 1604.58 302.603L1604.58 311.974M1609 327 1609 327 1609 327 1609 327Z" fill="#3B3E41" fill-rule="evenodd"/><path d="M1596.59 287.808 1596.59 287.808 1599 276.092 1599 276.092 1593.87 275.142 1525.22 262 1525.22 262 1525.22 262 1518.96 292.717 1518 297.625 1518 297.625 1530.83 300 1530.99 295.883C1531.15 295.567 1531.15 295.408 1531.15 295.092 1531.31 291.133 1528.75 287.492 1524.74 286.225L1527.14 274.983C1531.47 275.3 1535.64 272.45 1536.77 268.333L1585.85 277.833C1585.37 281.792 1587.61 285.592 1591.3 287.175 1591.62 287.175 1591.78 287.333 1592.1 287.492" fill="#3B3E41" fill-rule="evenodd"/><path d="M1610.41 285 1610.41 285 1615 273.719 1610.25 271.624 1546.33 246 1546.33 246.161 1546.33 246.161 1540 261.31 1544.27 262.599 1545.7 259.215C1549.81 260.343 1554.4 258.409 1556.3 254.38L1602.03 272.913C1600.76 276.781 1602.18 280.971 1605.51 283.227 1605.66 283.388 1605.98 283.55 1606.14 283.711" fill="#3B3E41" fill-rule="evenodd"/><path d="M1609.43 329 1609.43 329 1608.14 329 1605.57 329 1604.29 329 1601.71 329 1600.43 329 1597.86 329 1596.57 329 1595.13 329 1594 329 1594 334.684 1594 335 1595.13 335 1596.57 335 1597.86 335 1600.43 335 1601.71 335 1604.29 335 1605.57 335 1608.14 335 1609.43 335 1610.07 335 1612 335 1612 334.684 1612 329 1610.07 329 1609.43 329Z" fill="#3B3E41" fill-rule="evenodd"/><path d="M1613 335.462 1613 335.462 1613 336 1616 336 1616 335.462 1616 329 1613 329 1613 335.462Z" fill="#3B3E41" fill-rule="evenodd"/><path d="M1617 335.462 1617 335.462 1617 336 1620 336 1620 335.462 1620 329 1617 329 1617 335.462Z" fill="#3B3E41" fill-rule="evenodd"/><path d="M1621 335.462 1621 335.462 1621 336 1622 336 1622 329 1621 329 1621 335.462Z" fill="#3B3E41" fill-rule="evenodd"/><path d="M1609 328 1609 328 1609 327.526 1609 322 1588 322 1588 328 1606.32 328 1609 328Z" fill="#3B3E41" fill-rule="evenodd"/><path d="M1614 327.526 1614 327.526 1614 328 1617 328 1617 327.526 1617 322 1614 322 1614 327.526Z" fill="#3B3E41" fill-rule="evenodd"/><path d="M1610 327.526 1610 327.526 1610 328 1613 328 1613 327.526 1613 322 1610 322 1610 327.526Z" fill="#3B3E41" fill-rule="evenodd"/><path d="M1618 322 1618 322 1618 327.526 1618 328 1619 328 1619 322 1618 322Z" fill="#3B3E41" fill-rule="evenodd"/><path d="M1617 320.526 1617 320.526 1617 321 1620 321 1620 320.526 1620 315 1617 315 1617 320.526Z" fill="#3B3E41" fill-rule="evenodd"/><path d="M1621 315 1621 315 1621 320.526 1621 321 1622 321 1622 315 1621 315Z" fill="#3B3E41" fill-rule="evenodd"/><path d="M1612 320.526 1612 320.526 1612 315 1610 315 1610 320.526 1610 321 1612 321 1612 320.526Z" fill="#3B3E41" fill-rule="evenodd"/><path d="M1596.55 321 1596.55 321 1597.82 321 1600.36 321 1601.64 321 1604.18 321 1605.45 321 1606.57 321 1608 321 1608 320.526 1608 315 1606.57 315 1605.45 315 1604.18 315 1601.64 315 1600.36 315 1597.82 315 1596.55 315 1594.95 315 1594 315 1594 320.526 1594 321 1594.95 321 1596.55 321Z" fill="#3B3E41" fill-rule="evenodd"/><path d="M1616 320.526 1616 320.526 1616 315 1613 315 1613 320.526 1613 321 1616 321 1616 320.526Z" fill="#3B3E41" fill-rule="evenodd"/><path d="M1584 308.417 1584 308.417C1584 314.871 1579.2 320 1573 320 1566.96 320 1562 314.871 1562 308.417 1562 302.129 1566.96 297 1573 297 1579.2 297 1584 302.129 1584 308.417Z" fill="#3B3E41" fill-rule="evenodd"/><path d="M1572.37 315 1572.37 315 1572.37 313.395C1571.42 313.395 1570.47 313.074 1570 312.753L1570.32 311.63C1570.95 312.111 1571.74 312.432 1572.68 312.432 1573.79 312.432 1574.58 311.79 1574.58 310.827 1574.58 309.864 1573.95 309.383 1572.68 308.901 1571.11 308.259 1570.16 307.617 1570.16 306.173 1570.16 304.889 1571.11 303.926 1572.53 303.605L1572.53 302 1573.47 302 1573.47 303.605C1574.42 303.605 1575.21 303.926 1575.53 304.086L1575.21 305.21C1574.89 305.049 1574.26 304.568 1573.16 304.568 1571.89 304.568 1571.42 305.37 1571.42 306.012 1571.42 306.815 1572.05 307.296 1573.47 307.778 1575.05 308.42 1576 309.222 1576 310.667 1576 311.951 1575.05 313.074 1573.47 313.395L1573.47 315 1572.37 315Z" fill="#FEFEFE" fill-rule="evenodd"/><path d="M1559.1 287 1559.1 287C1559.1 287 1558.94 287 1558.94 286.844 1557.49 285.909 1556.52 285.13 1556.85 283.727 1557.17 282.481 1558.29 281.701 1559.74 281.857L1560.22 280.299 1561.19 280.455 1560.87 282.013C1561.83 282.169 1562.31 282.481 1562.8 282.948L1562.15 283.727C1561.83 283.571 1561.35 283.104 1560.22 282.948 1559.1 282.636 1558.45 283.26 1558.29 283.883 1558.13 284.662 1558.62 285.13 1559.9 285.909 1560.38 286.377 1560.87 286.688 1561.19 287L1570.84 287C1571 282.013 1567.3 277.338 1561.83 276.247 1555.56 275 1549.61 278.74 1548.16 284.662 1548 285.442 1548 286.221 1548 287L1559.1 287Z" fill="#3B3E41" fill-rule="evenodd"/><path d="M1583 271 1583 271C1581.94 269.815 1580.58 268.926 1579.07 268.185 1576.05 267 1572.72 267.148 1570 268.333L1583 271Z" fill="#3B3E41" fill-rule="evenodd"/><path d="M1553 309.08 1553 309.08C1553 310.2 1552.08 311 1551 311 1549.92 311 1549 310.2 1549 309.08 1549 307.96 1549.92 307 1551 307 1552.08 307 1553 307.96 1553 309.08Z" fill="#3B3E41" fill-rule="evenodd"/><path d="M1597 309.08 1597 309.08C1597 310.2 1596.08 311 1595 311 1593.92 311 1593 310.2 1593 309.08 1593 307.96 1593.92 307 1595 307 1596.08 307 1597 307.96 1597 309.08Z" fill="#3B3E41" fill-rule="evenodd"/><path d="M1541 283.08 1541 283.08C1541 284.2 1539.85 285 1538.5 285 1537.15 285 1536 284.2 1536 283.08 1536 281.96 1537.15 281 1538.5 281 1539.85 281 1541 281.96 1541 283.08Z" fill="#3B3E41" fill-rule="evenodd"/></g></svg>