<svg id="Capa_1" enable-background="new 0 0 512 512" height="512" viewBox="0 0 512 512" width="512" xmlns="http://www.w3.org/2000/svg"><g><g><path d="m102.46 128.62c-4.142 0-7.5 3.357-7.5 7.5v336.05c0 4.143 3.358 7.5 7.5 7.5h307.08c4.142 0 7.5-3.357 7.5-7.5v-432.34c0-4.143-3.358-7.5-7.5-7.5h-307.08c-4.142 0-7.5 3.357-7.5 7.5v61.29c0 4.143 3.358 7.5 7.5 7.5s7.5-3.357 7.5-7.5v-53.79h292.08v417.34h-292.08v-328.55c0-4.142-3.358-7.5-7.5-7.5z"/><path d="m441.87 408c4.142 0 7.5-3.357 7.5-7.5v-362.7c0-20.843-16.957-37.8-37.8-37.8h-311.14c-20.843 0-37.8 16.957-37.8 37.8v436.4c0 20.843 16.957 37.8 37.8 37.8h311.14c20.843 0 37.8-16.957 37.8-37.8v-38.7c0-4.143-3.358-7.5-7.5-7.5s-7.5 3.357-7.5 7.5v38.7c0 12.572-10.228 22.8-22.8 22.8h-311.14c-12.572 0-22.8-10.228-22.8-22.8v-436.4c0-12.572 10.228-22.8 22.8-22.8h311.14c12.572 0 22.8 10.228 22.8 22.8v362.7c0 4.143 3.358 7.5 7.5 7.5z"/><path d="m317.224 120.168c1.464 1.464 3.384 2.196 5.303 2.196s3.839-.732 5.303-2.196l8.982-8.982 8.982 8.982c1.464 1.464 3.384 2.196 5.303 2.196s3.839-.732 5.303-2.196c2.929-2.93 2.929-7.678 0-10.607l-8.982-8.982 8.982-8.982c2.929-2.93 2.929-7.678 0-10.607-2.929-2.928-7.678-2.928-10.606 0l-8.982 8.982-8.982-8.982c-2.929-2.928-7.678-2.928-10.606 0-2.929 2.93-2.929 7.678 0 10.607l8.982 8.982-8.982 8.982c-2.929 2.929-2.929 7.677 0 10.607z"/><path d="m326.711 191.931h-141.422c-9.706 0-17.602 7.896-17.602 17.602v33.947c-11.642 3.28-20.203 13.987-20.203 26.663s8.561 23.384 20.203 26.663v33.946c0 9.705 7.896 17.602 17.602 17.602h141.423c1.435 0 2.602 1.167 2.602 2.602v27.886c-11.642 3.28-20.203 13.987-20.203 26.663 0 15.275 12.428 27.703 27.703 27.703s27.703-12.428 27.703-27.703c0-12.676-8.561-23.384-20.203-26.663v-27.886c0-9.705-7.896-17.602-17.602-17.602h-141.423c-1.435 0-2.602-1.167-2.602-2.602v-33.946c11.642-3.28 20.203-13.987 20.203-26.663s-8.561-23.384-20.203-26.663v-33.947c0-1.435 1.167-2.602 2.602-2.602h141.423c9.706 0 17.602-7.896 17.602-17.602v-28.361l6.39 6.39c1.464 1.464 3.384 2.196 5.303 2.196s3.839-.732 5.303-2.196c2.929-2.93 2.929-7.678 0-10.607l-19.193-19.193c-2.485-2.534-7.457-3.254-10.606 0l-19.193 19.193c-2.929 2.93-2.929 7.678 0 10.607 2.929 2.928 7.678 2.928 10.606 0l6.39-6.39v28.361c-.001 1.435-1.168 2.602-2.603 2.602zm22.805 213.573c0 7.005-5.699 12.703-12.703 12.703s-12.703-5.698-12.703-12.703 5.699-12.703 12.703-12.703 12.703 5.698 12.703 12.703zm-161.626-135.361c0 7.005-5.699 12.703-12.703 12.703s-12.703-5.698-12.703-12.703 5.699-12.703 12.703-12.703 12.703 5.698 12.703 12.703z"/><path d="m336.813 242.439c-15.275 0-27.703 12.428-27.703 27.703s12.428 27.703 27.703 27.703 27.703-12.428 27.703-27.703-12.428-27.703-27.703-27.703zm0 40.407c-7.004 0-12.703-5.698-12.703-12.703s5.699-12.703 12.703-12.703 12.703 5.698 12.703 12.703-5.699 12.703-12.703 12.703z"/><path d="m147.484 405.504c0 15.275 12.428 27.703 27.703 27.703s27.703-12.428 27.703-27.703-12.428-27.703-27.703-27.703-27.703 12.428-27.703 27.703zm40.406 0c0 7.005-5.699 12.703-12.703 12.703s-12.703-5.698-12.703-12.703 5.699-12.703 12.703-12.703 12.703 5.698 12.703 12.703z"/><path d="m134.78 93.793h101.017c4.142 0 7.5-3.357 7.5-7.5s-3.358-7.5-7.5-7.5h-101.017c-4.142 0-7.5 3.357-7.5 7.5s3.358 7.5 7.5 7.5z"/><path d="m134.78 126.118h101.017c4.142 0 7.5-3.357 7.5-7.5s-3.358-7.5-7.5-7.5h-101.017c-4.142 0-7.5 3.357-7.5 7.5s3.358 7.5 7.5 7.5z"/><path d="m134.78 158.443h60.462c4.142 0 7.5-3.357 7.5-7.5s-3.358-7.5-7.5-7.5h-60.462c-4.142 0-7.5 3.357-7.5 7.5s3.358 7.5 7.5 7.5z"/></g></g></svg>