<svg id="Capa_1" enable-background="new 0 0 512 512" height="512" viewBox="0 0 512 512" width="512" xmlns="http://www.w3.org/2000/svg"><g><path d="m361 29.578v-29.578h-210v29.578h-95v482.422h400v-482.422zm-180 .422h150v29.578h-150zm245 452h-340v-422.422h65v30h210v-30h65z"/><path d="m206 124.578h-90v90h90zm-30 60h-30v-30h30z"/><path d="m255.875 154.578h140.125v30h-140.125z"/><path d="m206 248.578h-90v90h90zm-30 60h-30v-30h30z"/><path d="m255.875 278.578h140.125v30h-140.125z"/><path d="m255.875 400.578h140.125v30h-140.125z"/><path d="m149 415.365-19.394-19.393-21.212 21.213 40.606 40.606 65.606-65.606-21.212-21.213z"/></g></svg>