<svg id="Layer_1" enable-background="new 0 0 512 512" height="512" viewBox="0 0 512 512" width="512" xmlns="http://www.w3.org/2000/svg"><g><path d="m158.212 108.707c7.308 18.878 11.333 43.132 11.333 68.294 0 8.115-.424 16.131-1.237 23.907 2.314 1.71 4.452 3.689 6.351 5.931 2.368 2.795 4.275 5.887 5.715 9.163h199.67c8.284 0 15-6.716 15-15v-171c0-8.284-6.716-15-15-15h-65.94c1.239 4.796 1.899 9.822 1.899 15 0 33.084-26.916 60-60 60s-60-26.916-60-60c0-5.178.66-10.204 1.899-15h-65.94c-8.284 0-15 6.716-15 15v34.376c13.191 4.199 30.06 15.421 41.25 44.329z"/><ellipse cx="256.003" cy="30.001" rx="30" ry="30" transform="matrix(.099 -.995 .995 .099 200.922 281.802)"/><path d="m138.874 193.576c.44-5.404.671-10.948.671-16.575 0-21.548-3.306-41.956-9.31-57.464-6.874-17.757-16.885-27.536-28.19-27.536s-21.317 9.779-28.19 27.536c-6.003 15.508-9.31 35.917-9.31 57.464 0 5.626.231 11.171.671 16.575z"/><path d="m58.443 279.086h87.203l7.796-46.777c.362-2.175-.25-4.398-1.675-6.081s-3.518-2.652-5.723-2.652h-88c-2.205 0-4.298.97-5.723 2.652s-2.038 3.906-1.675 6.081z"/><path d="m497 308.918h-482c-8.284 0-15 6.716-15 15s6.716 15 15 15h5.003v158.08c0 8.284 6.716 15 15 15h40c7.449 0 13.77-5.467 14.843-12.838l23.337-160.241h30.316l-10.497 72.081h246.001l-10.498-72.081h30.317l23.337 160.242c1.074 7.372 7.395 12.838 14.844 12.838h40c8.284 0 15-6.716 15-15v-158.081h4.997c8.284 0 15-6.716 15-15s-6.716-15-15-15z"/><path d="m205.961 246.001h100.083v33.085h-100.083z"/></g></svg>