<?xml version="1.0" encoding="UTF-8" standalone="no"?>
<!DOCTYPE svg PUBLIC "-//W3C//DTD SVG 1.1//EN" "http://www.w3.org/Graphics/SVG/1.1/DTD/svg11.dtd">
<svg version="1.1" xmlns="http://www.w3.org/2000/svg" xmlns:xlink="http://www.w3.org/1999/xlink" preserveAspectRatio="xMidYMid meet" viewBox="0 0 234 60" width="234" height="60"><defs><path d="M234 0C234 0 234 0 234 0C234 36 234 56 234 60C234 60 234 60 234 60C93.6 60 15.6 60 0 60C0 60 0 60 0 60C0 24 0 4 0 0C0 0 0 0 0 0C140.4 0 218.4 0 234 0Z" id="b3Ws4ok7hK"></path><path d="M45.4 23.86L36.8 15.26L22 30.09L44.91 52.96L53.25 44.62L38.91 30.32L45.4 23.86Z" id="a3T3S61fps"></path><path d="M101.32 11.85L103.96 11.85L103.96 39.34L101.32 39.34L101.32 11.85Z" id="a1j4z1SQF8"></path><path d="M97.21 21.75C97.21 22.91 97.21 28.75 97.21 39.25L94.56 39.25C94.56 38.3 94.56 37.77 94.56 37.66C93.42 38.4 92.33 38.96 91.28 39.31C90.22 39.66 89.07 39.84 87.87 39.84C86.11 39.84 84.55 39.43 83.2 38.63C81.85 37.84 80.79 36.73 80.06 35.26C79.32 33.82 78.94 32.14 78.94 30.23C78.94 28.36 79.32 26.71 80.06 25.27C80.79 23.86 81.85 22.75 83.2 21.95C84.58 21.16 86.17 20.78 87.99 20.78C89.66 20.78 91.13 20.84 92.45 20.98C93.77 21.13 95.36 21.37 97.21 21.75ZM81.61 30.29C81.61 32.47 82.2 34.2 83.4 35.55C84.61 36.87 86.19 37.55 88.19 37.55C89.28 37.55 90.31 37.37 91.3 37.05C92.3 36.73 93.39 36.17 94.56 35.37C94.56 34.19 94.56 24.75 94.56 23.57C92.39 23.25 90.34 23.07 88.37 23.07C86.22 23.04 84.55 23.72 83.38 25.04C82.2 26.36 81.61 28.12 81.61 30.29Z" id="c1sefeLNLj"></path><path d="M108.07 11.85L110.72 11.85L110.72 39.34L108.07 39.34L108.07 11.85Z" id="a1kHs0If4d"></path><path d="M122.26 16.05C122.84 15.49 123.14 14.76 123.14 13.94C123.14 13.08 122.84 12.32 122.26 11.76C121.7 11.21 120.96 10.91 120.14 10.91C119.32 10.91 118.59 11.21 118.03 11.76C117.44 12.32 117.15 13.08 117.15 13.94C117.15 14.76 117.44 15.49 118.03 16.05C118.62 16.61 119.35 16.9 120.14 16.9C120.96 16.9 121.7 16.61 122.26 16.05Z" id="ewWI60ni2"></path><path d="M122.55 18.72C122.55 18.72 122.55 18.72 122.55 18.72C122.55 31.09 122.55 37.96 122.55 39.34C122.55 39.34 122.55 39.34 122.55 39.34C119.68 39.34 118.08 39.34 117.76 39.34C117.76 39.34 117.76 39.34 117.76 39.34C117.76 26.97 117.76 20.1 117.76 18.72C117.76 18.72 117.76 18.72 117.76 18.72C120.64 18.72 122.23 18.72 122.55 18.72Z" id="f2Zxhd2d1"></path><path d="M136.38 18.72C134.77 18.72 133 18.81 131.15 18.99C129.3 19.16 127.69 19.4 126.34 19.69C126.28 19.7 126 19.76 125.49 19.87L125.49 39.31L130.27 39.31C130.27 29.92 130.27 24.7 130.27 23.66C132.01 23.39 133.89 23.27 135.85 23.27C137.15 23.27 138.14 23.63 138.85 24.39C139.58 25.15 139.94 26.24 139.94 27.71C139.94 28.48 139.94 32.35 139.94 39.31L144.72 39.31C144.72 31.98 144.72 27.91 144.72 27.09C144.75 24.57 143.99 22.51 142.49 20.98C140.99 19.49 138.94 18.72 136.38 18.72Z" id="h2H0jKbHMd"></path><path d="M168.98 25.33C169.83 26.77 170.24 28.44 170.24 30.32C170.24 32.2 169.83 33.88 168.98 35.34C168.13 36.81 166.98 37.96 165.48 38.75C163.99 39.54 162.31 39.96 160.43 39.96C158.55 39.96 156.88 39.54 155.38 38.75C153.88 37.96 152.74 36.81 151.89 35.34C151.04 33.88 150.62 32.2 150.62 30.32C150.62 28.44 151.04 26.77 151.89 25.33C152.74 23.89 153.88 22.78 155.38 21.95C156.88 21.16 158.55 20.75 160.43 20.75C162.31 20.75 163.99 21.16 165.48 21.95C166.98 22.75 168.13 23.86 168.98 25.33ZM166.63 34.08C167.22 33 167.51 31.73 167.51 30.29C167.51 28.15 166.86 26.42 165.54 25.13C164.22 23.83 162.52 23.16 160.43 23.16C159.05 23.16 157.85 23.45 156.76 24.04C155.7 24.63 154.85 25.48 154.24 26.53C153.62 27.59 153.33 28.85 153.33 30.26C153.33 31.67 153.62 32.94 154.24 34.05C154.85 35.14 155.68 35.99 156.76 36.61C157.82 37.22 159.05 37.52 160.43 37.52C161.81 37.55 163.05 37.25 164.13 36.64C165.19 36.02 166.04 35.17 166.63 34.08Z" id="b148nOPjfA"></path><path d="M190.71 27.97C190.71 28.72 190.71 32.44 190.71 39.13L188.07 39.13C188.07 32.81 188.07 29.29 188.07 28.59C188.07 26.86 187.6 25.51 186.69 24.54C185.78 23.57 184.51 23.1 182.9 23.1C180.52 23.1 178.32 23.27 176.23 23.63C176.23 24.66 176.23 29.82 176.23 39.1L173.59 39.1C173.59 28.6 173.59 22.77 173.59 21.6C174.91 21.31 176.47 21.07 178.26 20.9C180.05 20.72 181.75 20.63 183.37 20.63C185.72 20.63 187.51 21.31 188.77 22.6C190.06 23.89 190.71 25.68 190.71 27.97Z" id="fbd8tJ2fW"></path><path d="M210.91 24.63C211.65 25.92 212 27.42 212 29.12C212 29.91 211.97 30.62 211.88 31.17C210.39 31.17 198.48 31.17 196.99 31.17C197.2 33.02 197.9 34.52 199.14 35.64C200.37 36.75 201.96 37.31 203.92 37.31C204.98 37.31 206.01 37.22 206.98 37.05C207.95 36.87 209.12 36.64 210.5 36.28C210.54 36.5 210.87 38.24 210.91 38.46C209.5 38.87 208.27 39.19 207.24 39.4C206.21 39.6 205.07 39.72 203.84 39.72C201.84 39.72 200.14 39.31 198.67 38.49C197.2 37.66 196.08 36.55 195.32 35.11C194.56 33.67 194.15 32.03 194.15 30.15C194.15 28.27 194.53 26.59 195.32 25.18C196.11 23.74 197.2 22.63 198.61 21.87C200.02 21.07 201.63 20.69 203.43 20.69C205.13 20.63 206.6 20.98 207.89 21.66C209.18 22.34 210.18 23.33 210.91 24.63ZM196.91 29.09C198.17 29.09 208.32 29.09 209.59 29.09C209.56 27.15 209 25.62 207.86 24.51C206.74 23.39 205.28 22.83 203.45 22.83C201.6 22.81 200.08 23.36 198.9 24.51C197.73 25.65 197.05 27.18 196.91 29.09Z" id="b2CY93v9sF"></path><path d="M53.25 44.62L67.96 29.91L45.05 7.03L36.8 15.29L51.13 29.59L48.75 31.97L44.67 36.05L53.25 44.62Z" id="b6NTNsZFw"></path><path d="M42.17 27.09L45.4 23.86L36.8 15.29L33.57 18.52L42.17 27.09Z" id="csUp0TC4E"></path><linearGradient id="gradientd22oII1Bj" gradientUnits="userSpaceOnUse" x1="36.06" y1="24.41" x2="45.75" y2="15.29"><stop style="stop-color: #5152f3;stop-opacity: 0" offset="0%"></stop><stop style="stop-color: #5354f0;stop-opacity: 0.293" offset="29.299999999999997%"></stop><stop style="stop-color: #5a5be7;stop-opacity: 0.4869" offset="48.69%"></stop><stop style="stop-color: #6667d8;stop-opacity: 0.6521" offset="65.21000000000001%"></stop><stop style="stop-color: #7778c3;stop-opacity: 0.8011" offset="80.11%"></stop><stop style="stop-color: #8d8da8;stop-opacity: 0.9381" offset="93.81%"></stop><stop style="stop-color: #999999;stop-opacity: 1" offset="100%"></stop></linearGradient><path d="M47.9 32.82L44.67 36.05L53.25 44.62L56.48 41.39L47.9 32.82Z" id="i1jQvogptM"></path><linearGradient id="gradientamcmUtEgN" gradientUnits="userSpaceOnUse" x1="54" y1="35.49" x2="44.31" y2="44.62"><stop style="stop-color: #5152f3;stop-opacity: 0" offset="0%"></stop><stop style="stop-color: #5455f2;stop-opacity: 0.2126" offset="21.26%"></stop><stop style="stop-color: #5f5fef;stop-opacity: 0.3896" offset="38.96%"></stop><stop style="stop-color: #7071e9;stop-opacity: 0.5538" offset="55.379999999999995%"></stop><stop style="stop-color: #8889e1;stop-opacity: 0.7103" offset="71.03%"></stop><stop style="stop-color: #a7a8d8;stop-opacity: 0.8598" offset="85.98%"></stop><stop style="stop-color: #cccccc;stop-opacity: 1" offset="100%"></stop></linearGradient></defs><g><g><g><use xlink:href="#b3Ws4ok7hK" opacity="1" fill="#5152f3" fill-opacity="1"></use><g><use xlink:href="#b3Ws4ok7hK" opacity="1" fill-opacity="0" stroke="#000000" stroke-width="1" stroke-opacity="0"></use></g></g><g><use xlink:href="#a3T3S61fps" opacity="1" fill="#ffffff" fill-opacity="1"></use><g><use xlink:href="#a3T3S61fps" opacity="1" fill-opacity="0" stroke="#000000" stroke-width="1" stroke-opacity="0"></use></g></g><g><use xlink:href="#a1j4z1SQF8" opacity="1" fill="#ffffff" fill-opacity="1"></use><g><use xlink:href="#a1j4z1SQF8" opacity="1" fill-opacity="0" stroke="#000000" stroke-width="1" stroke-opacity="0"></use></g></g><g><use xlink:href="#c1sefeLNLj" opacity="1" fill="#ffffff" fill-opacity="1"></use><g><use xlink:href="#c1sefeLNLj" opacity="1" fill-opacity="0" stroke="#000000" stroke-width="1" stroke-opacity="0"></use></g></g><g><use xlink:href="#a1kHs0If4d" opacity="1" fill="#ffffff" fill-opacity="1"></use><g><use xlink:href="#a1kHs0If4d" opacity="1" fill-opacity="0" stroke="#000000" stroke-width="1" stroke-opacity="0"></use></g></g><g><use xlink:href="#ewWI60ni2" opacity="1" fill="#ffffff" fill-opacity="1"></use><g><use xlink:href="#ewWI60ni2" opacity="1" fill-opacity="0" stroke="#000000" stroke-width="1" stroke-opacity="0"></use></g></g><g><use xlink:href="#f2Zxhd2d1" opacity="1" fill="#ffffff" fill-opacity="1"></use><g><use xlink:href="#f2Zxhd2d1" opacity="1" fill-opacity="0" stroke="#000000" stroke-width="1" stroke-opacity="0"></use></g></g><g><use xlink:href="#h2H0jKbHMd" opacity="1" fill="#ffffff" fill-opacity="1"></use><g><use xlink:href="#h2H0jKbHMd" opacity="1" fill-opacity="0" stroke="#000000" stroke-width="1" stroke-opacity="0"></use></g></g><g><use xlink:href="#b148nOPjfA" opacity="1" fill="#ffffff" fill-opacity="1"></use><g><use xlink:href="#b148nOPjfA" opacity="1" fill-opacity="0" stroke="#000000" stroke-width="1" stroke-opacity="0"></use></g></g><g><use xlink:href="#fbd8tJ2fW" opacity="1" fill="#ffffff" fill-opacity="1"></use><g><use xlink:href="#fbd8tJ2fW" opacity="1" fill-opacity="0" stroke="#000000" stroke-width="1" stroke-opacity="0"></use></g></g><g><use xlink:href="#b2CY93v9sF" opacity="1" fill="#ffffff" fill-opacity="1"></use><g><use xlink:href="#b2CY93v9sF" opacity="1" fill-opacity="0" stroke="#000000" stroke-width="1" stroke-opacity="0"></use></g></g><g><use xlink:href="#b6NTNsZFw" opacity="1" fill="#ffffff" fill-opacity="1"></use><g><use xlink:href="#b6NTNsZFw" opacity="1" fill-opacity="0" stroke="#000000" stroke-width="1" stroke-opacity="0"></use></g></g><g><use xlink:href="#csUp0TC4E" opacity="1" fill="url(#gradientd22oII1Bj)"></use><g><use xlink:href="#csUp0TC4E" opacity="1" fill-opacity="0" stroke="#000000" stroke-width="1" stroke-opacity="0"></use></g></g><g><use xlink:href="#i1jQvogptM" opacity="1" fill="url(#gradientamcmUtEgN)"></use><g><use xlink:href="#i1jQvogptM" opacity="1" fill-opacity="0" stroke="#000000" stroke-width="1" stroke-opacity="0"></use></g></g></g></g></svg>