<?xml version="1.0" encoding="utf-8"?>
<!-- Generator: Adobe Illustrator 24.2.1, SVG Export Plug-In . SVG Version: 6.00 Build 0)  -->
<svg version="1.1" xmlns="http://www.w3.org/2000/svg" xmlns:xlink="http://www.w3.org/1999/xlink" x="0px" y="0px"
	 viewBox="0 0 1920 1080" style="enable-background:new 0 0 1920 1080;" xml:space="preserve">
<style type="text/css">
	.st0{fill:url(#SVGID_1_);}
	.st1{fill:#2D225E;}
	.st2{fill:#1C8DD3;}
	.st3{fill:url(#SVGID_2_);}
	.st4{fill:url(#SVGID_3_);}
	.st5{fill:url(#SVGID_4_);}
	.st6{fill:#FFFFFF;}
	.st7{fill:#5152F3;}
	.st8{fill:url(#SVGID_5_);}
	.st9{fill:url(#SVGID_6_);}
	.st10{display:none;}
	.st11{display:inline;fill:none;stroke:#E02229;stroke-width:1.808;stroke-miterlimit:10;}
	.st12{display:inline;fill:none;stroke:#E02229;stroke-width:0.907;stroke-miterlimit:10;}
	.st13{display:inline;fill:url(#);}
	.st14{display:inline;fill:none;stroke:#E02229;stroke-width:1.0818;stroke-miterlimit:10;stroke-dasharray:1.2394;}
	.st15{display:inline;fill:url(#);stroke:#00FFFF;stroke-width:0.25;stroke-miterlimit:10;}
	.st16{display:inline;fill:none;stroke:#E02229;stroke-width:0.879;stroke-miterlimit:10;}
	.st17{display:inline;fill:none;stroke:#E02229;stroke-width:0.8955;stroke-miterlimit:10;}
	.st18{display:inline;fill:none;stroke:#E02229;stroke-width:0.8582;stroke-miterlimit:10;}
	.st19{display:inline;fill:#CCCCCC;}
	.st20{display:inline;fill:none;stroke:#00ACE4;stroke-miterlimit:10;}
	.st21{display:inline;fill:none;stroke:#00ACE4;stroke-width:0.8452;stroke-miterlimit:10;}
</style>
<g id="Layer_1">
	<polygon points="691.7,541.2 711.8,521.2 682.5,491.9 634.1,540.4 712.1,618.3 740.5,589.9 	"/>
	<path d="M874,509.4c4.5,0.5,9.9,1.3,16.2,2.6v59.6h-9v-5.4c-3.9,2.5-7.6,4.4-11.2,5.6c-3.6,1.2-7.5,1.8-11.6,1.8
		c-6,0-11.3-1.4-15.9-4.1c-4.6-2.7-8.2-6.5-10.7-11.5c-2.5-4.9-3.8-10.6-3.8-17.1c0-6.4,1.3-12,3.8-16.9c2.5-4.8,6.1-8.6,10.7-11.3
		c4.7-2.7,10.1-4,16.3-4C864.5,508.7,869.5,508.9,874,509.4z M843.1,523.2c-4,4.5-6,10.5-6,17.9c0,7.4,2,13.3,6.1,17.9
		c4.1,4.5,9.5,6.8,16.3,6.8c3.7,0,7.2-0.6,10.6-1.7c3.4-1.1,7.1-3,11.1-5.7v-40.2c-7.4-1.1-14.4-1.7-21.1-1.7
		C852.8,516.4,847.1,518.7,843.1,523.2z"/>
	<path d="M904.2,571.9v-93.6h9v93.6H904.2z"/>
	<path d="M927.2,571.9v-93.6h9v93.6H927.2z"/>
	<path d="M968.3,495.5c2.8,0,5.3-1,7.2-2.9c2-1.9,3-4.4,3-7.2c0-2.9-1-5.5-3-7.4c-1.9-1.9-4.4-2.9-7.2-2.9c-2.8,0-5.3,1-7.2,2.9
		c-2,1.9-3,4.5-3,7.4c0,2.8,1,5.3,3,7.2C963.1,494.5,965.6,495.5,968.3,495.5z"/>
	<rect x="960.2" y="501.7" width="16.3" height="70.2"/>
	<path d="M1044.4,509.4c-5.1-5.1-12.1-7.7-20.8-7.7c-5.5,0-11.5,0.3-17.8,0.9c-6.3,0.6-11.8,1.4-16.4,2.4l-2.9,0.6v66.2h16.3v-53.3
		c5.9-0.9,12.3-1.3,19-1.3c4.4,0,7.8,1.2,10.2,3.8c2.5,2.6,3.7,6.3,3.7,11.3v39.5h16.3v-41.6
		C1052.1,521.6,1049.5,514.6,1044.4,509.4z"/>
	<path d="M1122.7,512.7c5.1,2.7,9,6.5,11.9,11.5c2.9,4.9,4.3,10.6,4.3,17c0,6.4-1.4,12.1-4.3,17.1c-2.9,5-6.8,8.9-11.9,11.6
		c-5.1,2.7-10.8,4.1-17.2,4.1c-6.4,0-12.1-1.4-17.2-4.1c-5.1-2.7-9-6.6-11.9-11.6c-2.9-5-4.3-10.7-4.3-17.1c0-6.4,1.4-12.1,4.3-17
		c2.9-4.9,6.8-8.7,11.9-11.5c5.1-2.7,10.8-4.1,17.2-4.1C1111.9,508.6,1117.6,510,1122.7,512.7z M1118.1,562.7c3.6-2.1,6.5-5,8.5-8.7
		c2-3.7,3-8,3-12.9c0-7.3-2.2-13.2-6.7-17.6c-4.5-4.4-10.3-6.7-17.4-6.7c-4.7,0-8.8,1-12.5,3c-3.6,2-6.5,4.9-8.6,8.5
		c-2.1,3.6-3.1,7.9-3.1,12.7c0,4.8,1,9.1,3.1,12.9c2.1,3.7,4.9,6.6,8.6,8.7c3.6,2.1,7.8,3.1,12.5,3.1
		C1110.2,565.8,1114.4,564.8,1118.1,562.7z"/>
	<path d="M1202,514.9c4.4,4.4,6.6,10.5,6.6,18.3v38h-9v-35.9c0-5.9-1.6-10.5-4.7-13.8c-3.1-3.3-7.4-4.9-12.9-4.9
		c-8.1,0-15.6,0.6-22.7,1.8v52.7h-9v-59.6c4.5-1,9.8-1.8,15.9-2.4c6.1-0.6,11.9-0.9,17.4-0.9C1191.6,508.2,1197.7,510.5,1202,514.9z
		"/>
	<path d="M1267.1,511.7c4.4,2.3,7.8,5.7,10.3,10.1c2.5,4.4,3.7,9.5,3.7,15.3c0,2.7-0.1,5.1-0.4,7H1230c0.7,6.3,3.1,11.4,7.3,15.2
		c4.2,3.8,9.6,5.7,16.3,5.7c3.6,0,7.1-0.3,10.4-0.9c3.3-0.6,7.3-1.4,12-2.6l1.4,7.4c-4.8,1.4-9,2.5-12.5,3.2
		c-3.5,0.7-7.4,1.1-11.6,1.1c-6.8,0-12.6-1.4-17.6-4.2c-5-2.8-8.8-6.6-11.4-11.5c-2.6-4.9-4-10.5-4-16.9c0-6.4,1.3-12.1,4-16.9
		c2.7-4.9,6.4-8.7,11.2-11.3c4.8-2.7,10.3-4,16.4-4C1257.7,508.2,1262.7,509.4,1267.1,511.7z M1236.5,521.4c-4,3.9-6.3,9.1-6.8,15.6
		h43.2c-0.1-6.6-2-11.8-5.9-15.6c-3.8-3.8-8.8-5.7-15-5.7C1245.7,515.6,1240.5,517.5,1236.5,521.4z"/>
	<polygon points="713.3,558.7 742.5,587.9 790.6,539.8 712.6,461.9 684.5,490 733.3,538.7 725.2,546.8 	"/>
</g>
<g id="kerning" class="st10">
</g>
<g id="composição" class="st10">
</g>
<g id="grid" class="st10">
</g>
</svg>
